/vscmnt/brussel_pixiu_data/_data_brussel/112/vsc11236/PredSimResults/SUBJ11opt3D/expIG/worker_09.mot
version=1
nRows=8
nColumns=50
inDegrees=yes
endheader
                time	         pelvis_tilt	         pelvis_list	     pelvis_rotation	           pelvis_tx	           pelvis_ty	           pelvis_tz	       hip_flexion_r	     hip_adduction_r	      hip_rotation_r	        knee_angle_r	       ankle_angle_r	         mtp_angle_r	       hip_flexion_l	     hip_adduction_l	      hip_rotation_l	        knee_angle_l	       ankle_angle_l	         mtp_angle_l	    lumbar_extension	      lumbar_bending	     lumbar_rotation	 ercspn_r/activation	 intobl_r/activation	 extobl_r/activation	    abd_r/activation	    add_r/activation	hamstrings_r/activation	bifemsh_r/activation	glut_max_r/activation	iliopsoas_r/activation	rect_fem_r/activation	  vasti_r/activation	gastroc_r/activation	 soleus_r/activation	tib_ant_r/activation	 ercspn_l/activation	 intobl_l/activation	 extobl_l/activation	    abd_l/activation	    add_l/activation	hamstrings_l/activation	bifemsh_l/activation	glut_max_l/activation	iliopsoas_l/activation	rect_fem_l/activation	  vasti_l/activation	gastroc_l/activation	 soleus_l/activation	tib_ant_l/activation	
          0.58319054	         -6.01926150	          2.51882004	         -7.65096332	          0.81646676	          0.93194329	          0.00726312	        -13.36593907	         -3.86018772	          0.96663674	        -11.55311277	          9.42530289	         35.74524932	         34.46193089	         -1.43096838	         -7.35586424	         -7.01848676	          3.11590003	          0.25734504	        -13.87096075	         -0.49747715	          1.95467695	          0.01000086	          0.01000002	          0.01000001	          0.03467691	          0.01000007	          0.01000020	          0.26849929	          0.01774302	          0.08087828	          0.01645052	          0.01000006	          0.21190964	          0.33192350	          0.01429373	          0.07123491	          0.26228846	          0.03334215	          0.01000003	          0.20441765	          0.06844530	          0.23987582	          0.03013878	          0.14449658	          0.03277328	          0.01000002	          0.01338527	          0.01000007	          0.46366382	
          0.59485435	         -6.04388818	          2.64507412	         -7.87081805	          0.83674754	          0.92966981	          0.00665298	        -14.45614130	         -4.22611192	          0.72849638	        -11.55251692	          8.09837210	         37.64596139	         34.70735244	         -1.25870556	         -7.55421786	         -8.94890718	          2.61579491	          0.30394929	        -13.42001694	         -0.93026668	          2.19749701	          0.01000393	          0.01000001	          0.01000002	          0.02903299	          0.11977745	          0.01000008	          0.22479913	          0.01485524	          0.27622052	          0.01377421	          0.02035112	          0.17742003	          0.29813709	          0.01196732	          0.05964093	          0.21959909	          0.02791547	          0.00999999	          0.29806160	          0.05730533	          0.20083429	          0.13717906	          0.12097870	          0.02743923	          0.01000000	          0.01120673	          0.01000000	          0.52005697	
          0.60651816	         -6.04480157	          2.76439997	         -8.05777000	          0.85746913	          0.92756271	          0.00603291	        -15.43669119	         -4.57802128	          0.44800073	        -11.81538546	          6.67163209	         39.51401855	         34.80932452	         -1.12751839	         -7.52834200	        -11.19141543	          2.03668284	          0.22667575	        -12.93838951	         -1.36429717	          2.43430933	          0.06375010	          0.01000001	          0.01000010	          0.02430766	          0.10028315	          0.01660053	          0.18821151	          0.01243746	          0.23126368	          0.01153239	          0.01703892	          0.14854362	          0.26193742	          0.01001955	          0.04993395	          0.18385774	          0.02337203	          0.06305464	          0.26856152	          0.06446507	          0.16814705	          0.19066279	          0.10128853	          0.02297332	          0.01000000	          0.01194399	          0.01194395	          0.59394011	
          0.61818198	         -6.02829985	          2.85527847	         -8.20007394	          0.87834275	          0.92579318	          0.00533852	        -16.19363268	         -4.89115329	          0.13580493	        -12.50202736	          5.16677037	         41.29102867	         34.82603413	         -1.00849044	         -7.52257605	        -13.38522045	          1.55271236	          0.19831825	        -12.45868091	         -1.76555985	          2.65596503	          0.08101207	          0.01000000	          0.01000003	          0.02035141	          0.11300928	          0.01389873	          0.15757880	          0.01041318	          0.32826829	          0.01193067	          0.01426576	          0.12436706	          0.21930521	          0.00999999	          0.05215667	          0.15393355	          0.01956806	          0.13086814	          0.34178217	          0.05397294	          0.14077989	          0.22686553	          0.08480308	          0.01923428	          0.01000000	          0.01000003	          0.00999999	          0.66546764	
          0.62984579	         -5.99393361	          2.91452505	         -8.29642640	          0.89906922	          0.92450686	          0.00456282	        -16.59244784	         -5.16105410	         -0.18144808	        -13.82293401	          3.65559227	         42.85430155	         34.88258948	         -0.90646811	         -7.53961694	        -15.66007156	          1.05619667	          0.14172745	        -12.01814042	         -2.13211406	          2.85540166	          0.10524295	          0.01000001	          0.01000001	          0.01703907	          0.17232007	          0.01164977	          0.13193213	          0.01000010	          0.43248992	          0.01000010	          0.01194391	          0.10412541	          0.18361168	          0.01000000	          0.08250431	          0.12887974	          0.01638322	          0.17366261	          0.43739148	          0.04518849	          0.11786694	          0.27396458	          0.07100076	          0.01610381	          0.01015406	          0.01000003	          0.01000001	          0.68709619	
          0.64150960	         -5.93997393	          2.94909093	         -8.34848420	          0.91949711	          0.92375765	          0.00373285	        -16.52088473	         -5.39472306	         -0.50389117	        -15.96356857	          2.20766460	         44.04172964	         35.01556708	         -0.82511173	         -7.57834267	        -18.15018782	          0.96546333	          0.07427707	        -11.63052290	         -2.47695435	          3.02516956	          0.15781629	          0.01000001	          0.01000002	          0.01426584	          0.21940401	          0.01000015	          0.12499444	          0.01000000	          0.41872132	          0.01000004	          0.01000000	          0.08717824	          0.15372753	          0.01000000	          0.08629507	          0.10790362	          0.01371673	          0.20326831	          0.46431273	          0.03783389	          0.09868324	          0.29142724	          0.05944487	          0.01348286	          0.06988922	          0.01000003	          0.01000000	          0.67382889	
          0.65317341	         -5.86841246	          2.96721070	         -8.35500970	          0.93954794	          0.92364007	          0.00287103	        -15.91272140	         -5.60680850	         -0.85278367	        -19.03518059	          0.93563519	         44.44581746	         35.12024651	         -0.74185549	         -7.61421312	        -20.65327778	          1.26592981	          0.02077204	        -11.29721523	         -2.81051129	          3.15815097	          0.17318572	          0.01000000	          0.01000002	          0.01194397	          0.22177187	          0.01000004	          0.11111062	          0.01000000	          0.35057138	          0.01000003	          0.00999999	          0.07298934	          0.12870725	          0.01000000	          0.07224999	          0.09034152	          0.01148423	          0.21095971	          0.45316747	          0.03167762	          0.08262183	          0.26898312	          0.04976978	          0.01128852	          0.10538096	          0.01000001	          0.01000000	          0.60957813	
          0.66483722	         -5.78228234	          2.97026064	         -8.31540129	          0.95920588	          0.92416350	          0.00199056	        -14.77864564	         -5.81127124	         -1.22033784	        -22.96757712	         -0.32804932	         44.08418121	         35.11234878	         -0.63402333	         -7.60127662	        -23.00478495	          1.90019773	         -0.00379635	        -11.01375671	         -3.13353623	          3.25117633	          0.16968694	          0.01000000	          0.01000002	          0.01000000	          0.24416124	          0.01000004	          0.10610078	          0.01000000	          0.29351332	          0.01000001	          0.00999999	          0.06110979	          0.10775920	          0.01000000	          0.06049079	          0.07563778	          0.01000000	          0.22168042	          0.43682690	          0.03631843	          0.06917454	          0.22520417	          0.04166938	          0.01000020	          0.15798184	          0.01000001	          0.01000000	          0.51036484	
